# xmcd CD database file
#
# Track frame offsets:
#	150
#	34445
#	53366
#	100540
#	119425
#	142912
#	169267
#	190050
#	214870
#	246595
#	272597
#	298422
#
# Disc length: 4484 seconds
#
# Revision: 0
# Processed by: cddbd v1.5.1PL2 Copyright (c) Steve Scherf et al.
# Submitted via: CDex 1.51
#
DISCID=b511820c
DTITLE=Various Artist - Songs for my Father
DYEAR=1999
DGENRE=Jazz
TTITLE0=Lily Dior/Song for my Father
TTITLE1=The Ted Vining Trio/Hi Fly
TTITLE2=Don Burrows/Tenderly
TTITLE3=Tom Baker and Bob Barnard/Big Butter and Egg Man
TTITLE4=Ricky May/What A Wonderful World
TTITLE5=James Morrison/The Flintstones Theme
TTITLE6=Christine Sullivan/And I Love Him
TTITLE7=Andrew Speight Quartet/Will You Still Be Mine?
TTITLE8=Browne Hayward Stevens/I Thought About You
TTITLE9=Grace Knight/Black Coffee
TTITLE10=Guy Strazzullo Quartet/Wise Ones
TTITLE11=Julian "Canonball" Adderley (feat. Miles Davis)/One for Daddy 'O'
EXTD=YEAR: 1999
EXTT0=
EXTT1=
EXTT2=
EXTT3=
EXTT4=
EXTT5=
EXTT6=
EXTT7=
EXTT8=
EXTT9=
EXTT10=
EXTT11=
PLAYORDER=
